<svg width="1em" height="1em" viewBox="0 0 86 101" fill="none" xmlns="http://www.w3.org/2000/svg">
<mask id="mask0_16457_2733" style="mask-type:alpha" maskUnits="userSpaceOnUse" x="3" y="0" width="83" height="101">
<path d="M3 97C3 99.2091 4.79086 101 7 101H81.9C84.1091 101 85.9 99.2091 85.9 97V26.5042C85.9 25.5346 85.5478 24.5979 84.9088 23.8685L65.1951 1.36428C64.4356 0.497242 63.339 0 62.1863 0H7C4.79086 0 3 1.79086 3 4V97Z" fill="#D9D9D9"/>
<path d="M3 97C3 99.2091 4.79086 101 7 101H81.9C84.1091 101 85.9 99.2091 85.9 97V26.5042C85.9 25.5346 85.5478 24.5979 84.9088 23.8685L65.1951 1.36428C64.4356 0.497242 63.339 0 62.1863 0H7C4.79086 0 3 1.79086 3 4V97Z" fill="url(#paint0_linear_16457_2733)"/>
</mask>
<g mask="url(#mask0_16457_2733)">
<path d="M3 97C3 99.2091 4.79086 101 7 101L82.5 101C84.7091 101 86.5 99.2091 86.5 97V27.0374C86.5 26.0478 86.1331 25.0932 85.4703 24.3584L64.6914 1.32093C63.933 0.480012 62.8536 0 61.7211 0H7C4.79086 0 3 1.79086 3 4V97Z" fill="#F3F3F3"/>
<path d="M56.8526 56.624C54.0779 56.4178 51.4077 55.3876 49.2499 53.5324C45.0358 54.4595 41.0293 55.7997 37.0221 57.4485C33.8367 63.1159 30.8568 66 28.2878 66C27.7742 66 27.1576 65.8967 26.7468 65.5879C25.6164 65.0727 25 63.9391 25 62.8063C25 61.8788 25.2051 59.3022 34.9676 55.0788C37.227 50.9571 38.9738 46.7323 40.4127 42.3022C39.1797 39.8295 36.5086 33.7502 38.3579 30.6599C38.9738 29.5261 40.2076 28.908 41.5434 29.0111C42.5708 29.0111 43.5982 29.5263 44.2141 30.3506C45.5506 32.2055 45.4476 36.1201 43.7002 41.8903C45.345 44.9814 47.5028 47.7627 50.0714 50.1333C52.2295 49.721 54.3866 49.4114 56.5449 49.4114C61.3741 49.5143 62.093 51.7821 61.9912 53.1201C61.9909 56.624 58.6004 56.624 56.8526 56.624ZM28.0824 63.0123L28.3908 62.9077C29.8292 62.3932 30.9594 61.3633 31.7817 60.0236C30.24 60.6421 29.007 61.6735 28.0824 63.0123ZM41.7485 32.1017H41.4396C41.337 32.1017 41.1317 32.1017 41.0291 32.2053C40.6178 33.9564 40.927 35.8113 41.6462 37.4598C42.2621 35.7082 42.2621 33.853 41.7485 32.1017ZM42.468 47.0418L42.3647 47.2482L42.2619 47.1449C41.3368 49.514 40.3097 51.8852 39.179 54.151L39.3846 54.0484V54.2536C41.6462 53.4289 44.1115 52.7092 46.3726 52.1942L46.2691 52.0906H46.5775C45.0356 50.544 43.5977 48.7929 42.468 47.0418ZM56.4421 52.503C55.5175 52.503 54.6955 52.503 53.7704 52.7094C54.7976 53.2234 55.8252 53.4291 56.8523 53.5327C57.573 53.636 58.2912 53.5327 58.9076 53.327C58.9076 53.017 58.4968 52.503 56.4421 52.503Z" fill="#BD4949"/>
<path d="M63 22C63 24.2091 64.7909 26 67 26H89L63 4.76837e-07V22Z" fill="#E1E1E1"/>
</g>
<path d="M0 9C0 7.89543 0.895431 7 2 7H37C38.1046 7 39 7.89543 39 9V21C39 22.1046 38.1046 23 37 23H31.5347H2C0.895429 23 0 22.1046 0 21V9Z" fill="#BD4949"/>
<path d="M12.1367 15.6543H9.85742V14.7344H12.1367C12.5781 14.7344 12.9355 14.6641 13.209 14.5234C13.4824 14.3828 13.6816 14.1875 13.8066 13.9375C13.9355 13.6875 14 13.4023 14 13.082C14 12.7891 13.9355 12.5137 13.8066 12.2559C13.6816 11.998 13.4824 11.791 13.209 11.6348C12.9355 11.4746 12.5781 11.3945 12.1367 11.3945H10.1211V19H8.99023V10.4688H12.1367C12.7812 10.4688 13.3262 10.5801 13.7715 10.8027C14.2168 11.0254 14.5547 11.334 14.7852 11.7285C15.0156 12.1191 15.1309 12.5664 15.1309 13.0703C15.1309 13.6172 15.0156 14.084 14.7852 14.4707C14.5547 14.8574 14.2168 15.1523 13.7715 15.3555C13.3262 15.5547 12.7812 15.6543 12.1367 15.6543ZM18.8691 19H17.0879L17.0996 18.0801H18.8691C19.4785 18.0801 19.9863 17.9531 20.3926 17.6992C20.7988 17.4414 21.1035 17.082 21.3066 16.6211C21.5137 16.1562 21.6172 15.6133 21.6172 14.9922V14.4707C21.6172 13.9824 21.5586 13.5488 21.4414 13.1699C21.3242 12.7871 21.1523 12.4648 20.9258 12.2031C20.6992 11.9375 20.4219 11.7363 20.0938 11.5996C19.7695 11.4629 19.3965 11.3945 18.9746 11.3945H17.0527V10.4688H18.9746C19.5332 10.4688 20.043 10.5625 20.5039 10.75C20.9648 10.9336 21.3613 11.2012 21.6934 11.5527C22.0293 11.9004 22.2871 12.3223 22.4668 12.8184C22.6465 13.3105 22.7363 13.8652 22.7363 14.4824V14.9922C22.7363 15.6094 22.6465 16.166 22.4668 16.6621C22.2871 17.1543 22.0273 17.5742 21.6875 17.9219C21.3516 18.2695 20.9453 18.5371 20.4688 18.7246C19.9961 18.9082 19.4629 19 18.8691 19ZM17.6914 10.4688V19H16.5605V10.4688H17.6914ZM25.5664 10.4688V19H24.4355V10.4688H25.5664ZM29.1406 14.3066V15.2324H25.3203V14.3066H29.1406ZM29.7207 10.4688V11.3945H25.3203V10.4688H29.7207Z" fill="white"/>
<defs>
<linearGradient id="paint0_linear_16457_2733" x1="88" y1="10" x2="33.409" y2="117.219" gradientUnits="userSpaceOnUse">
<stop stop-color="#F1B823"/>
<stop offset="1" stop-color="#F7E8CB"/>
</linearGradient>
</defs>
</svg>
