<?xml version="1.0" standalone="no"?><!DOCTYPE svg PUBLIC "-//W3C//DTD SVG 1.1//EN" "http://www.w3.org/Graphics/SVG/1.1/DTD/svg11.dtd"><svg t="1625485237951" class="icon" viewBox="0 0 1024 1024" version="1.1" xmlns="http://www.w3.org/2000/svg" p-id="11673" xmlns:xlink="http://www.w3.org/1999/xlink" width="48" height="48"><defs><style type="text/css"></style></defs><path d="M366.215056 147.668667C304.00429 49.668303 253.700444 0.29503 209.600833 0.29503 165.268886 0.29503 123.384458 48.557023 78.437865 142.750271A92.205484 92.205484 0 0 0 69.451743 182.451477V874.026411c0 50.918492 41.278387 92.196879 92.196879 92.196878h449.261868c10.183453 0 18.439376-8.255923 18.439375-18.439375 0-10.183453-8.255923-18.439376-18.439375-18.439376H161.648622c-30.551587 0-55.318127-24.76654-55.318128-55.318127V182.453935c0-8.24363 1.843938-16.382771 5.392903-23.823673 39.006655-81.747899 73.468619-121.45648 97.878665-121.45648 27.263232 0 72.92896 45.960759 130.784346 138.694837l5.41503 8.6788h307.187707l5.294559-9.368432C710.370024 82.989484 751.985236 37.173782 776.0855 37.173782c21.947774 0 56.926041 39.899121 98.601489 121.167596A55.318127 55.318127 0 0 1 880.784276 183.582425v402.975347c0 10.184682 8.255923 18.439376 18.439376 18.439376 10.183453 0 18.439376-8.254694 18.439375-18.439376v-402.974118a92.196879 92.196879 0 0 0-10.158866-42.072509C859.475733 47.856327 817.779387 0.29503 776.0855 0.29503c-42.033172 0-88.083669 49.293369-144.567164 147.373637H366.215056z" fill="#54bdbd" p-id="11674"></path><path d="M788.587397 671.193277v333.951847c0 10.183453 8.255923 18.439376 18.439376 18.439375 10.183453 0 18.439376-8.255923 18.439376-18.439375V671.193277c0-10.183453-8.255923-18.439376-18.439376-18.439375-10.183453 0-18.439376 8.255923-18.439376 18.439375z" fill="#54bdbd" p-id="11675"></path><path d="M688.652127 745.774406c-8.294031 5.909205-19.808807 3.975529-25.718012-4.317273-5.909205-8.294031-3.976759-19.807577 4.316043-25.716782l140.581801-100.172524 139.052562 100.2303c8.26084 5.954689 10.130593 17.479299 4.175904 25.741369-5.954689 8.26084-17.479299 10.129364-25.74014 4.174674l-117.612485-84.775644-119.056902 84.83465z" fill="#54bdbd" p-id="11676"></path><path d="M219.806413 113.847164l-19.342905 48.943021c-3.743193 9.471693 0.899842 20.183741 10.370304 23.926934a18.439376 18.439376 0 0 0 8.38377 1.220687l14.033594-1.229292c10.145345-0.886319 17.65017-9.830646 16.762622-19.975991a18.439376 18.439376 0 0 0-2.657729-8.044485l-27.548427-44.840874zM775.111901 115.971381l-19.342905 48.94302c-3.743193 9.471693 0.899842 20.183741 10.370305 23.926934a18.439376 18.439376 0 0 0 8.38377 1.220687l14.033594-1.229292c10.145345-0.886319 17.65017-9.830646 16.762622-19.975991a18.439376 18.439376 0 0 0-2.657729-8.044484l-27.548427-44.840874z" fill="#54bdbd" p-id="11677"></path><path d="M253.8455 431.481393h480.839914c10.183453 0 18.439376-8.255923 18.439376-18.439376 0-10.183453-8.255923-18.439376-18.439376-18.439376H253.8455c-10.183453 0-18.439376 8.255923-18.439375 18.439376 0 10.183453 8.255923 18.439376 18.439375 18.439376zM253.8455 615.87515h428.79662c10.183453 0 18.439376-8.255923 18.439376-18.439376 0-10.183453-8.255923-18.439376-18.439376-18.439375H253.8455c-10.183453 0-18.439376 8.255923-18.439375 18.439375 0 10.183453 8.255923 18.439376 18.439375 18.439376zM253.8455 800.268908h221.272509c10.183453 0 18.439376-8.255923 18.439376-18.439376 0-10.183453-8.255923-18.439376-18.439376-18.439376H253.8455c-10.183453 0-18.439376 8.255923-18.439375 18.439376 0 10.183453 8.255923 18.439376 18.439375 18.439376z" fill="#54bdbd" p-id="11678"></path></svg>